<svg id="visual" viewBox="0 290 960 240" width="960" height="240" xmlns="http://www.w3.org/2000/svg" xmlns:xlink="http://www.w3.org/1999/xlink" version="1.1"><path d="M0 394L13.3 394C26.7 394 53.3 394 80 377C106.7 360 133.3 326 160 309.3C186.7 292.7 213.3 293.3 240 302.3C266.7 311.3 293.3 328.7 320 328C346.7 327.3 373.3 308.7 400 305.8C426.7 303 453.3 316 480 330.7C506.7 345.3 533.3 361.7 560 366.5C586.7 371.3 613.3 364.7 640 366.7C666.7 368.7 693.3 379.3 720 381.7C746.7 384 773.3 378 800 363C826.7 348 853.3 324 880 314.7C906.7 305.3 933.3 310.7 946.7 313.3L960 316L960 541L946.7 541C933.3 541 906.7 541 880 541C853.3 541 826.7 541 800 541C773.3 541 746.7 541 720 541C693.3 541 666.7 541 640 541C613.3 541 586.7 541 560 541C533.3 541 506.7 541 480 541C453.3 541 426.7 541 400 541C373.3 541 346.7 541 320 541C293.3 541 266.7 541 240 541C213.3 541 186.7 541 160 541C133.3 541 106.7 541 80 541C53.3 541 26.7 541 13.3 541L0 541Z" fill="#7cab7d"></path><path d="M0 405L13.3 396.8C26.7 388.7 53.3 372.3 80 373.8C106.7 375.3 133.3 394.7 160 404.8C186.7 415 213.3 416 240 422.3C266.7 428.7 293.3 440.3 320 438.8C346.7 437.3 373.3 422.7 400 406.5C426.7 390.3 453.3 372.7 480 374C506.7 375.3 533.3 395.7 560 397.8C586.7 400 613.3 384 640 388.5C666.7 393 693.3 418 720 429.5C746.7 441 773.3 439 800 439.7C826.7 440.3 853.3 443.7 880 440.3C906.7 437 933.3 427 946.7 422L960 417L960 541L946.7 541C933.3 541 906.7 541 880 541C853.3 541 826.7 541 800 541C773.3 541 746.7 541 720 541C693.3 541 666.7 541 640 541C613.3 541 586.7 541 560 541C533.3 541 506.7 541 480 541C453.3 541 426.7 541 400 541C373.3 541 346.7 541 320 541C293.3 541 266.7 541 240 541C213.3 541 186.7 541 160 541C133.3 541 106.7 541 80 541C53.3 541 26.7 541 13.3 541L0 541Z" fill="#55765b"></path><path d="M0 486L13.3 486.5C26.7 487 53.3 488 80 479.8C106.7 471.7 133.3 454.3 160 449.7C186.7 445 213.3 453 240 459.2C266.7 465.3 293.3 469.7 320 469.5C346.7 469.3 373.3 464.7 400 465.7C426.7 466.7 453.3 473.3 480 470C506.7 466.7 533.3 453.3 560 443.7C586.7 434 613.3 428 640 424.8C666.7 421.7 693.3 421.3 720 429.7C746.7 438 773.3 455 800 460.3C826.7 465.7 853.3 459.3 880 463C906.7 466.7 933.3 480.3 946.7 487.2L960 494L960 541L946.7 541C933.3 541 906.7 541 880 541C853.3 541 826.7 541 800 541C773.3 541 746.7 541 720 541C693.3 541 666.7 541 640 541C613.3 541 586.7 541 560 541C533.3 541 506.7 541 480 541C453.3 541 426.7 541 400 541C373.3 541 346.7 541 320 541C293.3 541 266.7 541 240 541C213.3 541 186.7 541 160 541C133.3 541 106.7 541 80 541C53.3 541 26.7 541 13.3 541L0 541Z" fill="#344439"></path></svg>