<svg id="visual" viewBox="0 0 900 600" width="900" height="600" xmlns="http://www.w3.org/2000/svg" xmlns:xlink="http://www.w3.org/1999/xlink" version="1.1"><path d="M0 204L18.8 203C37.7 202 75.3 200 112.8 204.5C150.3 209 187.7 220 225.2 227.8C262.7 235.7 300.3 240.3 337.8 240.3C375.3 240.3 412.7 235.7 450.2 227.7C487.7 219.7 525.3 208.3 562.8 180.2C600.3 152 637.7 107 675.2 93.5C712.7 80 750.3 98 787.8 129.7C825.3 161.3 862.7 206.7 881.3 229.3L900 252L900 601L881.3 601C862.7 601 825.3 601 787.8 601C750.3 601 712.7 601 675.2 601C637.7 601 600.3 601 562.8 601C525.3 601 487.7 601 450.2 601C412.7 601 375.3 601 337.8 601C300.3 601 262.7 601 225.2 601C187.7 601 150.3 601 112.8 601C75.3 601 37.7 601 18.8 601L0 601Z" fill="#ffe6c8"></path><path d="M0 158L18.8 160.3C37.7 162.7 75.3 167.3 112.8 184.8C150.3 202.3 187.7 232.7 225.2 237C262.7 241.3 300.3 219.7 337.8 199.8C375.3 180 412.7 162 450.2 167.3C487.7 172.7 525.3 201.3 562.8 220.5C600.3 239.7 637.7 249.3 675.2 253.2C712.7 257 750.3 255 787.8 241.5C825.3 228 862.7 203 881.3 190.5L900 178L900 601L881.3 601C862.7 601 825.3 601 787.8 601C750.3 601 712.7 601 675.2 601C637.7 601 600.3 601 562.8 601C525.3 601 487.7 601 450.2 601C412.7 601 375.3 601 337.8 601C300.3 601 262.7 601 225.2 601C187.7 601 150.3 601 112.8 601C75.3 601 37.7 601 18.8 601L0 601Z" fill="#d7d1b2"></path><path d="M0 230L18.8 253.8C37.7 277.7 75.3 325.3 112.8 339C150.3 352.7 187.7 332.3 225.2 316.5C262.7 300.7 300.3 289.3 337.8 272.2C375.3 255 412.7 232 450.2 235.7C487.7 239.3 525.3 269.7 562.8 282.8C600.3 296 637.7 292 675.2 300.5C712.7 309 750.3 330 787.8 328.3C825.3 326.7 862.7 302.3 881.3 290.2L900 278L900 601L881.3 601C862.7 601 825.3 601 787.8 601C750.3 601 712.7 601 675.2 601C637.7 601 600.3 601 562.8 601C525.3 601 487.7 601 450.2 601C412.7 601 375.3 601 337.8 601C300.3 601 262.7 601 225.2 601C187.7 601 150.3 601 112.8 601C75.3 601 37.7 601 18.8 601L0 601Z" fill="#b1bca2"></path><path d="M0 429L18.8 421.2C37.7 413.3 75.3 397.7 112.8 374.5C150.3 351.3 187.7 320.7 225.2 317.7C262.7 314.7 300.3 339.3 337.8 340.3C375.3 341.3 412.7 318.7 450.2 324.7C487.7 330.7 525.3 365.3 562.8 390C600.3 414.7 637.7 429.3 675.2 420.5C712.7 411.7 750.3 379.3 787.8 367.8C825.3 356.3 862.7 365.7 881.3 370.3L900 375L900 601L881.3 601C862.7 601 825.3 601 787.8 601C750.3 601 712.7 601 675.2 601C637.7 601 600.3 601 562.8 601C525.3 601 487.7 601 450.2 601C412.7 601 375.3 601 337.8 601C300.3 601 262.7 601 225.2 601C187.7 601 150.3 601 112.8 601C75.3 601 37.7 601 18.8 601L0 601Z" fill="#90a694"></path><path d="M0 439L18.8 430.3C37.7 421.7 75.3 404.3 112.8 410C150.3 415.7 187.7 444.3 225.2 450.5C262.7 456.7 300.3 440.3 337.8 443.2C375.3 446 412.7 468 450.2 464.7C487.7 461.3 525.3 432.7 562.8 426C600.3 419.3 637.7 434.7 675.2 438.7C712.7 442.7 750.3 435.3 787.8 423.2C825.3 411 862.7 394 881.3 385.5L900 377L900 601L881.3 601C862.7 601 825.3 601 787.8 601C750.3 601 712.7 601 675.2 601C637.7 601 600.3 601 562.8 601C525.3 601 487.7 601 450.2 601C412.7 601 375.3 601 337.8 601C300.3 601 262.7 601 225.2 601C187.7 601 150.3 601 112.8 601C75.3 601 37.7 601 18.8 601L0 601Z" fill="#748e86"></path><path d="M0 460L18.8 464.3C37.7 468.7 75.3 477.3 112.8 482.3C150.3 487.3 187.7 488.7 225.2 498C262.7 507.3 300.3 524.7 337.8 524.8C375.3 525 412.7 508 450.2 496.8C487.7 485.7 525.3 480.3 562.8 490C600.3 499.7 637.7 524.3 675.2 522.3C712.7 520.3 750.3 491.7 787.8 483C825.3 474.3 862.7 485.7 881.3 491.3L900 497L900 601L881.3 601C862.7 601 825.3 601 787.8 601C750.3 601 712.7 601 675.2 601C637.7 601 600.3 601 562.8 601C525.3 601 487.7 601 450.2 601C412.7 601 375.3 601 337.8 601C300.3 601 262.7 601 225.2 601C187.7 601 150.3 601 112.8 601C75.3 601 37.7 601 18.8 601L0 601Z" fill="#5f7676"></path></svg>