<svg id="visual" viewBox="0 0 900 675" width="900" height="675" xmlns="http://www.w3.org/2000/svg" xmlns:xlink="http://www.w3.org/1999/xlink" version="1.1"><path d="M0 194L15 173C30 152 60 110 90 120.2C120 130.3 150 192.7 180 209C210 225.3 240 195.7 270 199.3C300 203 330 240 360 259.5C390 279 420 281 450 254.7C480 228.3 510 173.7 540 170.2C570 166.7 600 214.3 630 212.5C660 210.7 690 159.3 720 160.8C750 162.3 780 216.7 810 232.7C840 248.7 870 226.3 885 215.2L900 204L900 676L885 676C870 676 840 676 810 676C780 676 750 676 720 676C690 676 660 676 630 676C600 676 570 676 540 676C510 676 480 676 450 676C420 676 390 676 360 676C330 676 300 676 270 676C240 676 210 676 180 676C150 676 120 676 90 676C60 676 30 676 15 676L0 676Z" fill="#ccddd0"></path><path d="M0 238L15 239.7C30 241.3 60 244.7 90 248.8C120 253 150 258 180 248.3C210 238.7 240 214.3 270 206C300 197.7 330 205.3 360 221.8C390 238.3 420 263.7 450 280C480 296.3 510 303.7 540 286C570 268.3 600 225.7 630 223.7C660 221.7 690 260.3 720 248C750 235.7 780 172.3 810 172.8C840 173.3 870 237.7 885 269.8L900 302L900 676L885 676C870 676 840 676 810 676C780 676 750 676 720 676C690 676 660 676 630 676C600 676 570 676 540 676C510 676 480 676 450 676C420 676 390 676 360 676C330 676 300 676 270 676C240 676 210 676 180 676C150 676 120 676 90 676C60 676 30 676 15 676L0 676Z" fill="#b5c7b9"></path><path d="M0 205L15 203.7C30 202.3 60 199.7 90 226.8C120 254 150 311 180 328.8C210 346.7 240 325.3 270 313.7C300 302 330 300 360 306C390 312 420 326 450 319C480 312 510 284 540 261C570 238 600 220 630 222.2C660 224.3 690 246.7 720 271.5C750 296.3 780 323.7 810 313.8C840 304 870 257 885 233.5L900 210L900 676L885 676C870 676 840 676 810 676C780 676 750 676 720 676C690 676 660 676 630 676C600 676 570 676 540 676C510 676 480 676 450 676C420 676 390 676 360 676C330 676 300 676 270 676C240 676 210 676 180 676C150 676 120 676 90 676C60 676 30 676 15 676L0 676Z" fill="#9eb2a2"></path><path d="M0 360L15 367.3C30 374.7 60 389.3 90 376.8C120 364.3 150 324.7 180 303.2C210 281.7 240 278.3 270 279.3C300 280.3 330 285.7 360 298.8C390 312 420 333 450 338C480 343 510 332 540 333.2C570 334.3 600 347.7 630 355.8C660 364 690 367 720 363.2C750 359.3 780 348.7 810 332.5C840 316.3 870 294.7 885 283.8L900 273L900 676L885 676C870 676 840 676 810 676C780 676 750 676 720 676C690 676 660 676 630 676C600 676 570 676 540 676C510 676 480 676 450 676C420 676 390 676 360 676C330 676 300 676 270 676C240 676 210 676 180 676C150 676 120 676 90 676C60 676 30 676 15 676L0 676Z" fill="#889d8b"></path><path d="M0 382L15 366.2C30 350.3 60 318.7 90 327.3C120 336 150 385 180 394.3C210 403.7 240 373.3 270 372.2C300 371 330 399 360 416C390 433 420 439 450 434.7C480 430.3 510 415.7 540 401.8C570 388 600 375 630 372.2C660 369.3 690 376.7 720 379.7C750 382.7 780 381.3 810 379.8C840 378.3 870 376.7 885 375.8L900 375L900 676L885 676C870 676 840 676 810 676C780 676 750 676 720 676C690 676 660 676 630 676C600 676 570 676 540 676C510 676 480 676 450 676C420 676 390 676 360 676C330 676 300 676 270 676C240 676 210 676 180 676C150 676 120 676 90 676C60 676 30 676 15 676L0 676Z" fill="#728876"></path><path d="M0 362L15 364.8C30 367.7 60 373.3 90 388.8C120 404.3 150 429.7 180 434.3C210 439 240 423 270 414.7C300 406.3 330 405.7 360 399.7C390 393.7 420 382.3 450 394.3C480 406.3 510 441.7 540 454.8C570 468 600 459 630 438.5C660 418 690 386 720 388C750 390 780 426 810 443.7C840 461.3 870 460.7 885 460.3L900 460L900 676L885 676C870 676 840 676 810 676C780 676 750 676 720 676C690 676 660 676 630 676C600 676 570 676 540 676C510 676 480 676 450 676C420 676 390 676 360 676C330 676 300 676 270 676C240 676 210 676 180 676C150 676 120 676 90 676C60 676 30 676 15 676L0 676Z" fill="#5e7461"></path><path d="M0 440L15 451.8C30 463.7 60 487.3 90 481.8C120 476.3 150 441.7 180 433.8C210 426 240 445 270 452.8C300 460.7 330 457.3 360 449.2C390 441 420 428 450 431.8C480 435.7 510 456.3 540 454.2C570 452 600 427 630 418.2C660 409.3 690 416.7 720 436.5C750 456.3 780 488.7 810 488.3C840 488 870 455 885 438.5L900 422L900 676L885 676C870 676 840 676 810 676C780 676 750 676 720 676C690 676 660 676 630 676C600 676 570 676 540 676C510 676 480 676 450 676C420 676 390 676 360 676C330 676 300 676 270 676C240 676 210 676 180 676C150 676 120 676 90 676C60 676 30 676 15 676L0 676Z" fill="#4a614c"></path><path d="M0 484L15 481.8C30 479.7 60 475.3 90 480.5C120 485.7 150 500.3 180 511.2C210 522 240 529 270 523.7C300 518.3 330 500.7 360 489.8C390 479 420 475 450 486.5C480 498 510 525 540 541.7C570 558.3 600 564.7 630 553.3C660 542 690 513 720 511.8C750 510.7 780 537.3 810 533.7C840 530 870 496 885 479L900 462L900 676L885 676C870 676 840 676 810 676C780 676 750 676 720 676C690 676 660 676 630 676C600 676 570 676 540 676C510 676 480 676 450 676C420 676 390 676 360 676C330 676 300 676 270 676C240 676 210 676 180 676C150 676 120 676 90 676C60 676 30 676 15 676L0 676Z" fill="#364e38"></path><path d="M0 586L15 575.3C30 564.7 60 543.3 90 548C120 552.7 150 583.3 180 596C210 608.7 240 603.3 270 600.3C300 597.3 330 596.7 360 587.5C390 578.3 420 560.7 450 557.2C480 553.7 510 564.3 540 570.5C570 576.7 600 578.3 630 569.5C660 560.7 690 541.3 720 542C750 542.7 780 563.3 810 564.7C840 566 870 548 885 539L900 530L900 676L885 676C870 676 840 676 810 676C780 676 750 676 720 676C690 676 660 676 630 676C600 676 570 676 540 676C510 676 480 676 450 676C420 676 390 676 360 676C330 676 300 676 270 676C240 676 210 676 180 676C150 676 120 676 90 676C60 676 30 676 15 676L0 676Z" fill="#243b26"></path><path d="M0 574L15 576.3C30 578.7 60 583.3 90 595.8C120 608.3 150 628.7 180 638.5C210 648.3 240 647.7 270 645.7C300 643.7 330 640.3 360 641.2C390 642 420 647 450 646.2C480 645.3 510 638.7 540 632.8C570 627 600 622 630 619C660 616 690 615 720 615.3C750 615.7 780 617.3 810 610C840 602.7 870 586.3 885 578.2L900 570L900 676L885 676C870 676 840 676 810 676C780 676 750 676 720 676C690 676 660 676 630 676C600 676 570 676 540 676C510 676 480 676 450 676C420 676 390 676 360 676C330 676 300 676 270 676C240 676 210 676 180 676C150 676 120 676 90 676C60 676 30 676 15 676L0 676Z" fill="#122a14"></path></svg>