<svg id="visual" viewBox="0 0 960 540" width="960" height="540" xmlns="http://www.w3.org/2000/svg" xmlns:xlink="http://www.w3.org/1999/xlink" version="1.1"><path d="M0 265L12.3 263.8C24.7 262.7 49.3 260.3 74 273.2C98.7 286 123.3 314 148 324C172.7 334 197.3 326 221.8 317.2C246.3 308.3 270.7 298.7 295.2 295.5C319.7 292.3 344.3 295.7 369 304.8C393.7 314 418.3 329 443 328.8C467.7 328.7 492.3 313.3 517 304.7C541.7 296 566.3 294 591 298.8C615.7 303.7 640.3 315.3 664.8 317C689.3 318.7 713.7 310.3 738.2 307.3C762.7 304.3 787.3 306.7 812 313.5C836.7 320.3 861.3 331.7 886 337.3C910.7 343 935.3 343 947.7 343L960 343L960 541L947.7 541C935.3 541 910.7 541 886 541C861.3 541 836.7 541 812 541C787.3 541 762.7 541 738.2 541C713.7 541 689.3 541 664.8 541C640.3 541 615.7 541 591 541C566.3 541 541.7 541 517 541C492.3 541 467.7 541 443 541C418.3 541 393.7 541 369 541C344.3 541 319.7 541 295.2 541C270.7 541 246.3 541 221.8 541C197.3 541 172.7 541 148 541C123.3 541 98.7 541 74 541C49.3 541 24.7 541 12.3 541L0 541Z" fill="#fffaf2"></path><path d="M0 363L12.3 365C24.7 367 49.3 371 74 369.8C98.7 368.7 123.3 362.3 148 354.8C172.7 347.3 197.3 338.7 221.8 339C246.3 339.3 270.7 348.7 295.2 353C319.7 357.3 344.3 356.7 369 356C393.7 355.3 418.3 354.7 443 352.5C467.7 350.3 492.3 346.7 517 343.7C541.7 340.7 566.3 338.3 591 338.5C615.7 338.7 640.3 341.3 664.8 338.8C689.3 336.3 713.7 328.7 738.2 335.3C762.7 342 787.3 363 812 367.2C836.7 371.3 861.3 358.7 886 346.7C910.7 334.7 935.3 323.3 947.7 317.7L960 312L960 541L947.7 541C935.3 541 910.7 541 886 541C861.3 541 836.7 541 812 541C787.3 541 762.7 541 738.2 541C713.7 541 689.3 541 664.8 541C640.3 541 615.7 541 591 541C566.3 541 541.7 541 517 541C492.3 541 467.7 541 443 541C418.3 541 393.7 541 369 541C344.3 541 319.7 541 295.2 541C270.7 541 246.3 541 221.8 541C197.3 541 172.7 541 148 541C123.3 541 98.7 541 74 541C49.3 541 24.7 541 12.3 541L0 541Z" fill="#fdefea"></path><path d="M0 370L12.3 376.3C24.7 382.7 49.3 395.3 74 398.2C98.7 401 123.3 394 148 394.2C172.7 394.3 197.3 401.7 221.8 405.7C246.3 409.7 270.7 410.3 295.2 405.7C319.7 401 344.3 391 369 392C393.7 393 418.3 405 443 407.8C467.7 410.7 492.3 404.3 517 404.3C541.7 404.3 566.3 410.7 591 407.7C615.7 404.7 640.3 392.3 664.8 392.2C689.3 392 713.7 404 738.2 401C762.7 398 787.3 380 812 371.2C836.7 362.3 861.3 362.7 886 369.2C910.7 375.7 935.3 388.3 947.7 394.7L960 401L960 541L947.7 541C935.3 541 910.7 541 886 541C861.3 541 836.7 541 812 541C787.3 541 762.7 541 738.2 541C713.7 541 689.3 541 664.8 541C640.3 541 615.7 541 591 541C566.3 541 541.7 541 517 541C492.3 541 467.7 541 443 541C418.3 541 393.7 541 369 541C344.3 541 319.7 541 295.2 541C270.7 541 246.3 541 221.8 541C197.3 541 172.7 541 148 541C123.3 541 98.7 541 74 541C49.3 541 24.7 541 12.3 541L0 541Z" fill="#f7e4e7"></path><path d="M0 415L12.3 420.8C24.7 426.7 49.3 438.3 74 441.8C98.7 445.3 123.3 440.7 148 441.5C172.7 442.3 197.3 448.7 221.8 452C246.3 455.3 270.7 455.7 295.2 452.5C319.7 449.3 344.3 442.7 369 434.8C393.7 427 418.3 418 443 419.8C467.7 421.7 492.3 434.3 517 438.5C541.7 442.7 566.3 438.3 591 439C615.7 439.7 640.3 445.3 664.8 447.5C689.3 449.7 713.7 448.3 738.2 450.7C762.7 453 787.3 459 812 453C836.7 447 861.3 429 886 428.5C910.7 428 935.3 445 947.7 453.5L960 462L960 541L947.7 541C935.3 541 910.7 541 886 541C861.3 541 836.7 541 812 541C787.3 541 762.7 541 738.2 541C713.7 541 689.3 541 664.8 541C640.3 541 615.7 541 591 541C566.3 541 541.7 541 517 541C492.3 541 467.7 541 443 541C418.3 541 393.7 541 369 541C344.3 541 319.7 541 295.2 541C270.7 541 246.3 541 221.8 541C197.3 541 172.7 541 148 541C123.3 541 98.7 541 74 541C49.3 541 24.7 541 12.3 541L0 541Z" fill="#e9dbe8"></path><path d="M0 500L12.3 500.8C24.7 501.7 49.3 503.3 74 503.3C98.7 503.3 123.3 501.7 148 502C172.7 502.3 197.3 504.7 221.8 506C246.3 507.3 270.7 507.7 295.2 503.7C319.7 499.7 344.3 491.3 369 487.5C393.7 483.7 418.3 484.3 443 482.7C467.7 481 492.3 477 517 478.8C541.7 480.7 566.3 488.3 591 486.8C615.7 485.3 640.3 474.7 664.8 469.5C689.3 464.3 713.7 464.7 738.2 466.5C762.7 468.3 787.3 471.7 812 478.5C836.7 485.3 861.3 495.7 886 495.8C910.7 496 935.3 486 947.7 481L960 476L960 541L947.7 541C935.3 541 910.7 541 886 541C861.3 541 836.7 541 812 541C787.3 541 762.7 541 738.2 541C713.7 541 689.3 541 664.8 541C640.3 541 615.7 541 591 541C566.3 541 541.7 541 517 541C492.3 541 467.7 541 443 541C418.3 541 393.7 541 369 541C344.3 541 319.7 541 295.2 541C270.7 541 246.3 541 221.8 541C197.3 541 172.7 541 148 541C123.3 541 98.7 541 74 541C49.3 541 24.7 541 12.3 541L0 541Z" fill="#d3d5e8"></path></svg>