<svg id="visual" viewBox="0 350 960 190" width="960" height="190" xmlns="http://www.w3.org/2000/svg" xmlns:xlink="http://www.w3.org/1999/xlink" version="1.1"><path d="M0 393L13.3 397.2C26.7 401.3 53.3 409.7 80 405.5C106.7 401.3 133.3 384.7 160 381.3C186.7 378 213.3 388 240 394.2C266.7 400.3 293.3 402.7 320 400.7C346.7 398.7 373.3 392.3 400 390.7C426.7 389 453.3 392 480 396C506.7 400 533.3 405 560 403.3C586.7 401.7 613.3 393.3 640 391.8C666.7 390.3 693.3 395.7 720 393.5C746.7 391.3 773.3 381.7 800 386C826.7 390.3 853.3 408.7 880 409.7C906.7 410.7 933.3 394.3 946.7 386.2L960 378L960 541L946.7 541C933.3 541 906.7 541 880 541C853.3 541 826.7 541 800 541C773.3 541 746.7 541 720 541C693.3 541 666.7 541 640 541C613.3 541 586.7 541 560 541C533.3 541 506.7 541 480 541C453.3 541 426.7 541 400 541C373.3 541 346.7 541 320 541C293.3 541 266.7 541 240 541C213.3 541 186.7 541 160 541C133.3 541 106.7 541 80 541C53.3 541 26.7 541 13.3 541L0 541Z" fill="#fffaf2"></path><path d="M0 424L13.3 427C26.7 430 53.3 436 80 434.5C106.7 433 133.3 424 160 416.2C186.7 408.3 213.3 401.7 240 402.7C266.7 403.7 293.3 412.3 320 414C346.7 415.7 373.3 410.3 400 406.2C426.7 402 453.3 399 480 400.7C506.7 402.3 533.3 408.7 560 417.5C586.7 426.3 613.3 437.7 640 440.8C666.7 444 693.3 439 720 432.3C746.7 425.7 773.3 417.3 800 418.7C826.7 420 853.3 431 880 430.3C906.7 429.7 933.3 417.3 946.7 411.2L960 405L960 541L946.7 541C933.3 541 906.7 541 880 541C853.3 541 826.7 541 800 541C773.3 541 746.7 541 720 541C693.3 541 666.7 541 640 541C613.3 541 586.7 541 560 541C533.3 541 506.7 541 480 541C453.3 541 426.7 541 400 541C373.3 541 346.7 541 320 541C293.3 541 266.7 541 240 541C213.3 541 186.7 541 160 541C133.3 541 106.7 541 80 541C53.3 541 26.7 541 13.3 541L0 541Z" fill="#fdefea"></path><path d="M0 423L13.3 423.3C26.7 423.7 53.3 424.3 80 429.7C106.7 435 133.3 445 160 446.3C186.7 447.7 213.3 440.3 240 441C266.7 441.7 293.3 450.3 320 449.8C346.7 449.3 373.3 439.7 400 437.2C426.7 434.7 453.3 439.3 480 443.7C506.7 448 533.3 452 560 451.2C586.7 450.3 613.3 444.7 640 445.5C666.7 446.3 693.3 453.7 720 454.3C746.7 455 773.3 449 800 446C826.7 443 853.3 443 880 442C906.7 441 933.3 439 946.7 438L960 437L960 541L946.7 541C933.3 541 906.7 541 880 541C853.3 541 826.7 541 800 541C773.3 541 746.7 541 720 541C693.3 541 666.7 541 640 541C613.3 541 586.7 541 560 541C533.3 541 506.7 541 480 541C453.3 541 426.7 541 400 541C373.3 541 346.7 541 320 541C293.3 541 266.7 541 240 541C213.3 541 186.7 541 160 541C133.3 541 106.7 541 80 541C53.3 541 26.7 541 13.3 541L0 541Z" fill="#f7e4e7"></path><path d="M0 460L13.3 465.2C26.7 470.3 53.3 480.7 80 482.8C106.7 485 133.3 479 160 475.3C186.7 471.7 213.3 470.3 240 472.7C266.7 475 293.3 481 320 479.2C346.7 477.3 373.3 467.7 400 462.7C426.7 457.7 453.3 457.3 480 459C506.7 460.7 533.3 464.3 560 470.3C586.7 476.3 613.3 484.7 640 487C666.7 489.3 693.3 485.7 720 481.3C746.7 477 773.3 472 800 468.8C826.7 465.7 853.3 464.3 880 467C906.7 469.7 933.3 476.3 946.7 479.7L960 483L960 541L946.7 541C933.3 541 906.7 541 880 541C853.3 541 826.7 541 800 541C773.3 541 746.7 541 720 541C693.3 541 666.7 541 640 541C613.3 541 586.7 541 560 541C533.3 541 506.7 541 480 541C453.3 541 426.7 541 400 541C373.3 541 346.7 541 320 541C293.3 541 266.7 541 240 541C213.3 541 186.7 541 160 541C133.3 541 106.7 541 80 541C53.3 541 26.7 541 13.3 541L0 541Z" fill="#e9dbe8"></path><path d="M0 521L13.3 517.2C26.7 513.3 53.3 505.7 80 501.2C106.7 496.7 133.3 495.3 160 494.3C186.7 493.3 213.3 492.7 240 496.7C266.7 500.7 293.3 509.3 320 513.8C346.7 518.3 373.3 518.7 400 513.8C426.7 509 453.3 499 480 495.2C506.7 491.3 533.3 493.7 560 498.7C586.7 503.7 613.3 511.3 640 512C666.7 512.7 693.3 506.3 720 505.8C746.7 505.3 773.3 510.7 800 510.3C826.7 510 853.3 504 880 499.2C906.7 494.3 933.3 490.7 946.7 488.8L960 487L960 541L946.7 541C933.3 541 906.7 541 880 541C853.3 541 826.7 541 800 541C773.3 541 746.7 541 720 541C693.3 541 666.7 541 640 541C613.3 541 586.7 541 560 541C533.3 541 506.7 541 480 541C453.3 541 426.7 541 400 541C373.3 541 346.7 541 320 541C293.3 541 266.7 541 240 541C213.3 541 186.7 541 160 541C133.3 541 106.7 541 80 541C53.3 541 26.7 541 13.3 541L0 541Z" fill="#d3d5e8"></path></svg>